<svg width="22" height="20" viewBox="0 0 22 20" fill="none" xmlns="http://www.w3.org/2000/svg">
<path d="M1.06667 0.666748H20.2667C20.5496 0.666748 20.8209 0.776007 21.0209 0.970489C21.221 1.16497 21.3333 1.42875 21.3333 1.70379V18.2964C21.3333 18.5714 21.221 18.8352 21.0209 19.0297C20.8209 19.2242 20.5496 19.3334 20.2667 19.3334H1.06667C0.783769 19.3334 0.512458 19.2242 0.312419 19.0297C0.112381 18.8352 0 18.5714 0 18.2964V1.70379C0 1.42875 0.112381 1.16497 0.312419 0.970489C0.512458 0.776007 0.783769 0.666748 1.06667 0.666748ZM10.7307 9.67134L3.8912 4.02467L2.50987 5.60512L10.7445 12.4029L18.8309 5.59993L17.4357 4.0309L10.7317 9.67134H10.7307Z" fill="#DADADA"/>
</svg>
