<svg width="37" height="36" viewBox="0 0 37 36" fill="none" xmlns="http://www.w3.org/2000/svg">
<path d="M27.0224 0H9.00747C4.03278 0 0 4.02944 0 9V27C0 31.9706 4.03278 36 9.00747 36H27.0224C31.9971 36 36.0299 31.9706 36.0299 27V9C36.0299 4.02944 31.9971 0 27.0224 0Z" fill="#6B1EFF"/>
<path d="M28.0261 18.0001L25.0923 15.0686V10.9286V0.925781L18.015 7.99721L15.0811 10.9286H10.9377H0.926514L8.00381 18.0001L10.9377 20.9315V25.0715V35.0744L18.015 28.0029L20.9488 25.0715H25.0923H35.1034L28.0261 18.0001Z" fill="white"/>
<path fill-rule="evenodd" clip-rule="evenodd" d="M10.9377 10.9286V0.925781L18.015 7.99721L15.0812 10.9286H10.9377ZM25.0922 35.0744L18.0149 28.003L20.9488 25.0715H25.0922V35.0744ZM0.926514 25.0714H10.9377V20.9314L8.00381 18L0.926514 25.0714ZM25.0923 15.0685V10.9285H35.1034L28.0261 17.9999L25.0923 15.0685Z" fill="#06CDE3"/>
</svg>
