<svg width="143" height="36" viewBox="0 0 143 36" fill="none" xmlns="http://www.w3.org/2000/svg">
<g clip-path="url(#clip0_2_1481)">
<path d="M49.2537 9.78435H41.1984L41.177 6.53149H60.8218V9.78435H52.7795V29.5715H49.2537V9.78435Z" fill="white"/>
<path d="M108.411 29.5715L97.388 19.4058V29.5715H93.8193V6.53149H104.637C109.672 6.53149 113.044 8.99577 113.044 13.4701C113.044 18.0172 109.96 20.2972 104.894 20.2972H102.968L113.503 29.5715H108.411ZM97.388 17.2072H104.911C107.571 17.2072 109.398 16.0243 109.398 13.4701C109.398 10.9158 107.571 9.73721 104.911 9.73721H97.388V17.2072Z" fill="white"/>
<path d="M75.5126 6.42847H74.6247L61.9199 29.5928H65.8274L68.534 24.527H81.5133L84.1855 29.5885H88.0201L75.5126 6.42847ZM70.1167 21.557L75.0322 12.2999L79.9306 21.557H70.1167Z" fill="white"/>
<path d="M130.488 6.42847H129.6L116.896 29.5928H120.807L123.514 24.527H136.493L139.174 29.5885H143.009L130.488 6.42847ZM125.092 21.557L130.008 12.2999L134.906 21.557H125.092Z" fill="white"/>
<path d="M27.0224 0H9.00747C4.03278 0 0 4.02944 0 9V27C0 31.9706 4.03278 36 9.00747 36H27.0224C31.9971 36 36.0299 31.9706 36.0299 27V9C36.0299 4.02944 31.9971 0 27.0224 0Z" fill="#6B1EFF"/>
<path d="M28.0261 18.0001L25.0923 15.0686V10.9286V0.925781L18.015 7.99721L15.0811 10.9286H10.9377H0.926514L8.00381 18.0001L10.9377 20.9315V25.0715V35.0744L18.015 28.0029L20.9488 25.0715H25.0923H35.1034L28.0261 18.0001Z" fill="white"/>
<path fill-rule="evenodd" clip-rule="evenodd" d="M10.9377 10.9286V0.925781L18.015 7.99721L15.0812 10.9286H10.9377ZM25.0922 35.0744L18.0149 28.003L20.9488 25.0715H25.0922V35.0744ZM0.926514 25.0714H10.9377V20.9314L8.00381 18L0.926514 25.0714ZM25.0923 15.0685V10.9285H35.1034L28.0261 17.9999L25.0923 15.0685Z" fill="#06CDE3"/>
</g>
<defs>
<clipPath id="clip0_2_1481">
<rect width="143" height="36" fill="white"/>
</clipPath>
</defs>
</svg>
