<svg width="201" height="377" viewBox="0 0 201 377" fill="none" xmlns="http://www.w3.org/2000/svg">
<mask id="path-1-inside-1_6_2871" fill="white">
<path d="M122.931 188.5L90.5685 156.137V110.431V0L12.5 78.0685L-19.863 110.431H-65.5686H-176L-97.9315 188.5L-65.5686 220.863V266.568V377L12.5 298.931L44.8629 266.568H90.5685H201L122.931 188.5Z"/>
</mask>
<path d="M122.931 188.5L123.639 187.793L122.931 188.5ZM90.5685 156.137H89.5685V156.551L89.8614 156.844L90.5685 156.137ZM90.5685 0H91.5685V-2.41421L89.8614 -0.707107L90.5685 0ZM-19.863 110.431V111.431H-19.4488L-19.1559 111.139L-19.863 110.431ZM-176 110.431V109.431H-178.414L-176.707 111.139L-176 110.431ZM-65.5686 220.863H-64.5686V220.449L-64.8614 220.156L-65.5686 220.863ZM-65.5686 377H-66.5686V379.414L-64.8614 377.707L-65.5686 377ZM12.5 298.931L13.2071 299.639L12.5 298.931ZM44.8629 266.568V265.568H44.4487L44.1558 265.861L44.8629 266.568ZM201 266.568V267.568H203.414L201.707 265.861L201 266.568ZM123.639 187.793L91.2756 155.43L89.8614 156.844L122.224 189.207L123.639 187.793ZM91.5685 156.137V110.431H89.5685V156.137H91.5685ZM91.5685 110.431V0H89.5685V110.431H91.5685ZM89.8614 -0.707107L11.7928 77.3614L13.2071 78.7756L91.2756 0.707107L89.8614 -0.707107ZM11.7928 77.3614L-20.5701 109.724L-19.1559 111.139L13.2071 78.7756L11.7928 77.3614ZM-19.863 109.431H-65.5686V111.431H-19.863V109.431ZM-65.5686 109.431H-176V111.431H-65.5686V109.431ZM-176.707 111.139L-98.6386 189.207L-97.2244 187.793L-175.293 109.724L-176.707 111.139ZM-98.6386 189.207L-66.2757 221.57L-64.8614 220.156L-97.2244 187.793L-98.6386 189.207ZM-66.5686 220.863V266.568H-64.5686V220.863H-66.5686ZM-66.5686 266.568V377H-64.5686V266.568H-66.5686ZM-64.8614 377.707L13.2071 299.639L11.7928 298.224L-66.2757 376.293L-64.8614 377.707ZM13.2071 299.639L45.57 267.276L44.1558 265.861L11.7928 298.224L13.2071 299.639ZM44.8629 267.568H90.5685V265.568H44.8629V267.568ZM90.5685 267.568H201V265.568H90.5685V267.568ZM201.707 265.861L123.639 187.793L122.224 189.207L200.293 267.276L201.707 265.861Z" fill="#06CDE3" mask="url(#path-1-inside-1_6_2871)"/>
<mask id="path-3-inside-2_6_2871" fill="white">
<path fill-rule="evenodd" clip-rule="evenodd" d="M-65.5684 110.431V0L12.5002 78.0685L-19.8628 110.431H-65.5684ZM90.5687 377L12.5002 298.932L44.8632 266.569H90.5687V377ZM-175.999 266.569H-65.5676V220.863L-97.9305 188.5L-175.999 266.569ZM90.5687 156.137V110.432H201L122.932 188.5L90.5687 156.137Z"/>
</mask>
<path d="M-65.5683 0L-64.8612 -0.707107L-66.5683 -2.41421V0H-65.5683ZM-65.5683 110.431H-66.5683V111.431H-65.5683V110.431ZM12.5002 78.0685L13.2073 78.7756L13.9144 78.0685L13.2073 77.3614L12.5002 78.0685ZM-19.8628 110.431V111.431H-19.4486L-19.1557 111.139L-19.8628 110.431ZM12.5002 298.932L11.7931 298.225L11.086 298.932L11.7931 299.639L12.5002 298.932ZM90.5688 377L89.8616 377.707L91.5688 379.414V377H90.5688ZM44.8632 266.569V265.569H44.449L44.1561 265.862L44.8632 266.569ZM90.5688 266.569H91.5688V265.569H90.5688V266.569ZM-65.5676 266.569V267.569H-64.5676V266.569H-65.5676ZM-175.999 266.569L-176.706 265.862L-178.413 267.569H-175.999V266.569ZM-65.5676 220.863H-64.5676V220.449L-64.8605 220.156L-65.5676 220.863ZM-97.9305 188.5L-97.2234 187.793L-97.9305 187.086L-98.6376 187.793L-97.9305 188.5ZM90.5687 110.432V109.432H89.5687V110.432H90.5687ZM90.5687 156.137H89.5687V156.552L89.8616 156.844L90.5687 156.137ZM201 110.432L201.707 111.139L203.414 109.432H201V110.432ZM122.932 188.5L122.225 189.207L122.932 189.914L123.639 189.207L122.932 188.5ZM-66.5683 0V110.431H-64.5683V0H-66.5683ZM13.2073 77.3614L-64.8612 -0.707107L-66.2754 0.707107L11.7931 78.7756L13.2073 77.3614ZM-19.1557 111.139L13.2073 78.7756L11.7931 77.3614L-20.5699 109.724L-19.1557 111.139ZM-65.5683 111.431H-19.8628V109.431H-65.5683V111.431ZM11.7931 299.639L89.8616 377.707L91.2758 376.293L13.2074 298.225L11.7931 299.639ZM44.1561 265.862L11.7931 298.225L13.2074 299.639L45.5703 267.276L44.1561 265.862ZM90.5688 265.569H44.8632V267.569H90.5688V265.569ZM91.5688 377V266.569H89.5688V377H91.5688ZM-65.5676 265.569H-175.999V267.569H-65.5676V265.569ZM-66.5676 220.863V266.569H-64.5676V220.863H-66.5676ZM-98.6376 189.207L-66.2747 221.57L-64.8605 220.156L-97.2234 187.793L-98.6376 189.207ZM-175.292 267.276L-97.2234 189.207L-98.6376 187.793L-176.706 265.862L-175.292 267.276ZM89.5687 110.432V156.137H91.5687V110.432H89.5687ZM201 109.432H90.5687V111.432H201V109.432ZM123.639 189.207L201.707 111.139L200.293 109.725L122.225 187.793L123.639 189.207ZM89.8616 156.844L122.225 189.207L123.639 187.793L91.2758 155.43L89.8616 156.844Z" fill="#6B1EFF" mask="url(#path-3-inside-2_6_2871)"/>
</svg>
