<svg width="243" height="243" viewBox="0 0 243 243" fill="none" xmlns="http://www.w3.org/2000/svg">
<mask id="path-1-inside-1_6_2835" fill="white">
<path d="M192.68 121.5L171.82 100.64V71.18V0L121.5 50.3201L100.64 71.18H71.18H0L50.3201 121.5L71.18 142.36V171.82V243L121.5 192.68L142.36 171.82H171.82H243L192.68 121.5Z"/>
</mask>
<path d="M192.68 121.5L193.387 120.793L192.68 121.5ZM171.82 100.64H170.82V101.054L171.113 101.347L171.82 100.64ZM171.82 0H172.82V-2.41421L171.113 -0.707107L171.82 0ZM100.64 71.18V72.18H101.054L101.347 71.8871L100.64 71.18ZM0 71.18V70.18H-2.41421L-0.707107 71.8871L0 71.18ZM71.18 142.36H72.18V141.946L71.8871 141.653L71.18 142.36ZM71.18 243H70.18V245.414L71.8871 243.707L71.18 243ZM121.5 192.68L122.207 193.387L121.5 192.68ZM142.36 171.82V170.82H141.946L141.653 171.113L142.36 171.82ZM243 171.82V172.82H245.414L243.707 171.113L243 171.82ZM193.387 120.793L172.527 99.9331L171.113 101.347L191.973 122.207L193.387 120.793ZM172.82 100.64V71.18H170.82V100.64H172.82ZM172.82 71.18V0H170.82V71.18H172.82ZM171.113 -0.707107L120.793 49.613L122.207 51.0272L172.527 0.707107L171.113 -0.707107ZM120.793 49.613L99.9331 70.4729L101.347 71.8871L122.207 51.0272L120.793 49.613ZM100.64 70.18H71.18V72.18H100.64V70.18ZM71.18 70.18H0V72.18H71.18V70.18ZM-0.707107 71.8871L49.613 122.207L51.0272 120.793L0.707107 70.4729L-0.707107 71.8871ZM49.613 122.207L70.4729 143.067L71.8871 141.653L51.0272 120.793L49.613 122.207ZM70.18 142.36V171.82H72.18V142.36H70.18ZM70.18 171.82V243H72.18V171.82H70.18ZM71.8871 243.707L122.207 193.387L120.793 191.973L70.4729 242.293L71.8871 243.707ZM122.207 193.387L143.067 172.527L141.653 171.113L120.793 191.973L122.207 193.387ZM142.36 172.82H171.82V170.82H142.36V172.82ZM171.82 172.82H243V170.82H171.82V172.82ZM243.707 171.113L193.387 120.793L191.973 122.207L242.293 172.527L243.707 171.113Z" fill="#06CDE3" mask="url(#path-1-inside-1_6_2835)"/>
<mask id="path-3-inside-2_6_2835" fill="white">
<path fill-rule="evenodd" clip-rule="evenodd" d="M71.1803 71.1799V-8.9876e-05L121.5 50.32L100.64 71.1799H71.1803ZM171.82 243L121.5 192.68L142.36 171.82H171.82V243ZM0.000682455 171.82H71.1807V142.36L50.3208 121.5L0.000682455 171.82ZM171.82 100.64V71.1802H243L192.68 121.5L171.82 100.64Z"/>
</mask>
<path d="M71.1804 0L71.8875 -0.707107L70.1804 -2.41421V0H71.1804ZM71.1804 71.18H70.1804V72.18H71.1804V71.18ZM121.5 50.3201L122.208 51.0272L122.915 50.3201L122.208 49.613L121.5 50.3201ZM100.64 71.18V72.18H101.055L101.348 71.8871L100.64 71.18ZM121.5 192.68L120.793 191.973L120.086 192.68L120.793 193.387L121.5 192.68ZM171.82 243L171.113 243.707L172.82 245.415V243H171.82ZM142.36 171.82V170.82H141.946L141.653 171.113L142.36 171.82ZM171.82 171.82H172.82V170.82H171.82V171.82ZM71.1808 171.82V172.82H72.1808V171.82H71.1808ZM0.000732422 171.82L-0.706374 171.113L-2.41348 172.82H0.000732422V171.82ZM71.1808 142.36H72.1808V141.946L71.8879 141.653L71.1808 142.36ZM50.3208 121.5L51.0279 120.793L50.3208 120.086L49.6137 120.793L50.3208 121.5ZM171.82 71.1803V70.1803H170.82V71.1803H171.82ZM171.82 100.64H170.82V101.055L171.113 101.348L171.82 100.64ZM243 71.1803L243.708 71.8874L245.415 70.1803H243V71.1803ZM192.68 121.5L191.973 122.207L192.68 122.915L193.387 122.207L192.68 121.5ZM70.1804 0V71.18H72.1804V0H70.1804ZM122.208 49.613L71.8875 -0.707107L70.4733 0.707107L120.793 51.0272L122.208 49.613ZM101.348 71.8871L122.208 51.0272L120.793 49.613L99.9334 70.4729L101.348 71.8871ZM71.1804 72.18H100.64V70.18H71.1804V72.18ZM120.793 193.387L171.113 243.707L172.528 242.293L122.208 191.973L120.793 193.387ZM141.653 171.113L120.793 191.973L122.208 193.387L143.067 172.527L141.653 171.113ZM171.82 170.82H142.36V172.82H171.82V170.82ZM172.82 243V171.82H170.82V243H172.82ZM71.1808 170.82H0.000732422V172.82H71.1808V170.82ZM70.1808 142.36V171.82H72.1808V142.36H70.1808ZM49.6137 122.207L70.4737 143.067L71.8879 141.653L51.0279 120.793L49.6137 122.207ZM0.707839 172.528L51.0279 122.207L49.6137 120.793L-0.706374 171.113L0.707839 172.528ZM170.82 71.1803V100.64H172.82V71.1803H170.82ZM243 70.1803H171.82V72.1803H243V70.1803ZM193.387 122.207L243.708 71.8874L242.293 70.4732L191.973 120.793L193.387 122.207ZM171.113 101.348L191.973 122.207L193.387 120.793L172.528 99.9333L171.113 101.348Z" fill="#6B1EFF" mask="url(#path-3-inside-2_6_2835)"/>
</svg>
