<svg width="25" height="24" viewBox="0 0 25 24" fill="none" xmlns="http://www.w3.org/2000/svg">
<path d="M12.3334 24C5.70577 24 0.333374 18.6276 0.333374 12C0.333374 5.3724 5.70577 0 12.3334 0C18.961 0 24.3334 5.3724 24.3334 12C24.3334 18.6276 18.961 24 12.3334 24ZM8.60137 13.404L8.61697 13.3956L9.66097 16.8396C9.79537 17.2128 9.98017 17.28 10.2046 17.2488C10.4302 17.2188 10.549 17.0976 10.6966 16.956L12.1222 15.5784L15.1822 17.844C15.7414 18.1524 16.1434 17.9928 16.2826 17.3256L18.271 7.9392C18.4906 7.0656 18.1066 6.7152 17.4286 6.9936L5.74897 11.5056C4.95217 11.8248 4.95697 12.2712 5.60497 12.4692L8.60137 13.4052V13.404Z" fill="#CCCCCC"/>
</svg>
