<svg width="25" height="20" viewBox="0 0 25 20" fill="none" xmlns="http://www.w3.org/2000/svg">
<path d="M7.88089 19.5482C16.9375 19.5482 21.8911 12.0448 21.8911 5.5379C21.8911 5.32478 21.8911 5.11262 21.8767 4.90142C22.8404 4.20437 23.6723 3.3413 24.3334 2.35261C23.4347 2.75082 22.4814 3.01197 21.5052 3.12733C22.5331 2.51195 23.3025 1.54407 23.67 0.403805C22.7034 0.977363 21.646 1.38158 20.5433 1.59901C19.8009 0.809583 18.819 0.286846 17.7496 0.111688C16.6801 -0.0634692 15.5828 0.118718 14.6273 0.630058C13.6719 1.1414 12.9116 1.95338 12.4641 2.94036C12.0166 3.92734 11.9069 5.03428 12.1519 6.0899C10.1943 5.99176 8.2791 5.48302 6.53079 4.5967C4.78248 3.71039 3.2401 2.46632 2.00377 0.945246C1.3741 2.02924 1.18125 3.31248 1.46447 4.53368C1.7477 5.75488 2.48572 6.82222 3.52825 7.51838C2.74465 7.49516 1.97812 7.28377 1.29337 6.90206C1.29337 6.92222 1.29337 6.94334 1.29337 6.96446C1.29369 8.10131 1.68723 9.20306 2.40724 10.0828C3.12726 10.9626 4.12943 11.5662 5.24377 11.7914C4.51885 11.9891 3.75825 12.018 3.02041 11.8758C3.33506 12.8542 3.94764 13.7098 4.77248 14.323C5.59732 14.9361 6.59316 15.2761 7.62073 15.2954C5.87712 16.6657 3.72319 17.4096 1.50553 17.4074C1.11376 17.4066 0.72237 17.3829 0.333374 17.3363C2.58518 18.7814 5.20529 19.5479 7.88089 19.5443" fill="#CCCCCC"/>
</svg>
